<svg xmlns="http://www.w3.org/2000/svg" width="176" height="175" fill="none" viewBox="0 0 176 175"><circle cx="88" cy="87.5" r="87" stroke="#000"/><mask id="a" width="176" height="175" x="0" y="0" maskUnits="userSpaceOnUse" style="mask-type:alpha"><circle cx="88" cy="87.5" r="87.5" fill="#D9D9D9"/></mask><g mask="url(#a)"><path fill="#FFE7FB" d="M72.819 94.456c8.823 8.377 18.913 18.121 18.054 30.258-.25 3.538-1.58 7.131-4.266 9.449-3.795 3.276-9.722 3.626-12.866 7.529-2.837 3.521-2.242 8.978.5 12.572 2.745 3.592 7.16 5.556 11.588 6.471 10.12 2.091 21.156-.869 28.873-7.742 1.219-1.085 2.386-2.303 2.993-3.817 1.066-2.661.223-5.666-.682-8.385-3.038-9.14-6.748-18.72-4.672-28.124 2.332-10.558 11.398-18.263 15.734-28.168 4.032-9.213 3.604-20.261-1.128-29.135-1.777-3.333-4.251-6.465-7.67-8.064-3.227-1.51-6.932-1.506-10.493-1.397-13.605.418-38.013-1.056-47.617 10.849-10.272 12.73 2.306 28.83 11.652 37.704"/><path fill="#6987FF" d="M59.56 163.679c-1.36-2.007-2.87-4.003-4.946-5.255-4.66-2.807-10.988-.982-14.934 2.763-3.948 3.745-6.068 8.971-8.075 14.029l-3.19 8.035c-1.35 3.399-2.712 6.856-3.053 10.498s.479 7.56 3.002 10.208c2.163 2.271 5.289 3.348 8.354 4.014 7.134 1.547 14.52 1.286 21.818 1.017 25.963-.957 9.787-32.397 1.024-45.309m53.613 18.113c.777-4.321 1.02-8.727 1.867-13.036a47.5 47.5 0 0 1 4.783-13.343c1.235-2.29 2.838-4.625 5.295-5.478 2.399-.832 5.094-.034 7.243 1.317 6.497 4.083 8.908 12.224 10.819 19.654l6.936 26.963c.467 1.814.721 4.186-.892 5.137-.63.369-1.395.4-2.126.42-10.739.282-23.557 1.785-34.123-.355-6.722-1.362-5.603-.666-3.884-7.243 1.238-4.736 3.208-9.17 4.082-14.036"/><path fill="#DAC8FF" d="M80.578 191.098c1.155 2.944 2.459 6.075 5.105 7.805 3.66 2.396 8.846 1.154 12.013-1.862s4.675-7.376 5.557-11.66 1.253-8.695 2.67-12.833c1.395-4.08 3.8-7.891 4.19-12.186.106-1.157-.125-2.602-1.221-2.988-.48-.169-1.009-.078-1.507.029-4.132.895-8.038 2.808-12.244 3.24-7.267.746-19.128-7.956-22.832.425-3.42 7.74 5.503 22.988 8.269 30.03"/><path fill="#F03FA3" d="m76.089 90.671-7.504.073c-.718.007-1.534.058-1.994.61-.568.678-.231 1.784.462 2.334.695.548 1.617.688 2.493.808l3.382.467c1.59.218 3.392.38 4.616-.656 1.225-1.036.765-3.658-.834-3.536m34.546 1.156-7.502.073c-.719.007-1.535.058-1.996.61-.567.68-.232 1.784.463 2.333.693.548 1.616.688 2.493.808l3.381.467c1.589.218 3.392.38 4.617-.655 1.224-1.036.764-3.659-.834-3.537"/><path stroke="#000" stroke-miterlimit="10" d="m29.413 200.587 5.175-23.797a47.7 47.7 0 0 1 21.267-30.27l20.114-12.614.545-5.771 1.42-14.908.041-.422"/><path fill="#000" d="M142.618 97.925c-2.574-9.01-11.46-54.426-11.46-54.426l-19.556-1.013c8.689 7.62 11.098 17.837 11.098 17.837-.402 12.243-2.295 21.976-4.97 29.723h-.01c-3.087 8.961-7.253 15.259-11.42 19.662a38 38 0 0 1-4.085 3.755c-2.582 2.069-5.031 3.477-7.058 4.413-3.302 1.554-5.535 1.894-5.535 1.894-6.379-2.386-11.513-5.916-15.649-10.062C55.834 91.476 56.853 61.095 56.4 60.323c0 0-.41-12.48 10.61-20.149l-17.909-.928S44.238 66.91 41.178 87.17s.477 33.603 14.01 35.019c13.534 1.416 64.864 0 64.864 0s29.498 0 22.566-24.263"/><path stroke="#000" stroke-miterlimit="10" d="m102.194 113.288.021.175.566 5.989 1.368 14.455 6.749 4.239h.021v.01l13.344 8.364a47.7 47.7 0 0 1 21.267 30.27l3.22 14.825 1.955 8.973"/><path stroke="#000" stroke-linecap="round" stroke-linejoin="bevel" stroke-miterlimit="10" stroke-width="2" d="M69.106 69.024s5.897-2.01 11.795 0"/><path fill="#000" d="M76.891 77.87c0 1.662-.846 3.008-1.888 3.008s-1.887-1.346-1.887-3.008.846-3.007 1.887-3.007c1.042 0 1.888 1.346 1.888 3.007"/><path stroke="#000" stroke-linecap="round" stroke-linejoin="bevel" stroke-miterlimit="10" stroke-width="2" d="M110.74 69.023s-5.898-2.01-11.795 0"/><path fill="#000" d="M102.954 77.87c0 1.662.845 3.008 1.887 3.008s1.888-1.346 1.888-3.007-.846-3.008-1.888-3.008-1.887 1.346-1.887 3.008"/><path stroke="#000" stroke-miterlimit="10" d="M88.61 77.901c.12.258.636 4.629-2.667 7.475 0 0-.683 2.873 4.27 2.94m-7.384 8.974s8.32 2.758 14.77.142M57.43 71.816s-6.906-8.687-10.462-4.66c-3.556 4.029 3.435 23.54 14.409 21.255"/><path stroke="#000" stroke-miterlimit="10" d="M51.487 74.966s5.19.03 7.404 4.147"/><path stroke="#000" stroke-miterlimit="10" d="M54.241 79.105s.166-1.774 3.49-1.562"/><path fill="#F7F6F2" d="M121.937 71.817s6.906-8.688 10.461-4.66c3.557 4.028-3.435 23.539-14.408 21.254"/><path stroke="#000" stroke-miterlimit="10" d="M128.073 74.967s-5.191.029-7.404 4.146"/><path stroke="#000" stroke-miterlimit="10" d="M125.318 79.105s-.166-1.774-3.49-1.562M56.4 60.323c.453.772-.565 31.153 17.573 49.385 4.136 4.146 9.27 7.676 15.65 10.062 0 0 2.232-.339 5.534-1.893 2.027-.937 4.476-2.345 7.058-4.414a38 38 0 0 0 4.085-3.755c4.167-4.403 8.334-10.7 11.42-19.662h.011c2.675-7.747 4.568-17.48 4.969-29.723"/><path fill="#000" d="M114.529 50.623s-21.418 21.05-57.098 23.252c0 0-11.003-11.652-8.33-32.57 2.675-20.92 47.819-44.84 73.606-11.968 0 0 20.84 15.741-.771 44.538 0 0 1.243-5.322-7.407-23.252"/><path stroke="#000" stroke-miterlimit="10" d="M65.16 140.684s12.77 13.846 26.093 17.832c0 0 14.233-2.007 22.921-18.324"/><path stroke="#000" stroke-miterlimit="10" d="M62.787 142.173s9.591 14.874 28.15 19.592c0 0 20.463-4.837 25.566-20.112m-55.108 1.393S71.75 175.24 76.31 200.587"/><path stroke="#000" stroke-miterlimit="10" d="M50.828 150.154s-4.243 14.6 4.408 23.879 19.124 16.808 19.124 16.808m44.374-47.795s-10.357 32.194-14.917 57.541"/><path stroke="#000" stroke-miterlimit="10" d="M129.303 150.154s4.242 14.599-4.409 23.879-19.124 16.808-19.124 16.808"/><path fill="#000" d="M102.781 119.452c-7.047 2.407-19.301 6.41-26.266 8.684l1.42-14.908c3.333 2.623 7.201 4.865 11.687 6.542 0 0 2.233-.338 5.536-1.893 2.026-.936 4.475-2.345 7.058-4.414z"/></g></svg>