<svg xmlns="http://www.w3.org/2000/svg" width="45" height="32" fill="none" viewBox="0 0 45 32"><path fill="#fff" d="M25.568 7.865a4.333 4.333 0 1 0-6.686-5.442C18.676 2.63 1.427 23.89 1.266 24.134a4.333 4.333 0 1 0 6.686 5.442c.205-.207 17.454-21.467 17.616-21.711m9.98 10.089a4.333 4.333 0 1 0-6.684-5.444c-.207.208-9.266 11.376-9.429 11.622a4.333 4.333 0 1 0 6.683 5.444c.208-.208 9.268-11.376 9.43-11.622M45 4.805a4.333 4.333 0 1 1-8.666 0 4.333 4.333 0 0 1 8.666 0m-36.334 0a4.333 4.333 0 1 1-8.666 0 4.333 4.333 0 0 1 8.666 0"/></svg>